<svg xmlns="http://www.w3.org/2000/svg" viewBox="0 0 800 520" font-family="-apple-system, BlinkMacSystemFont, Helvetica, Arial, sans-serif">
  <defs>
    <marker id="arrow" markerWidth="10" markerHeight="7" refX="10" refY="3.5" orient="auto">
      <polygon points="0 0, 10 3.5, 0 7" fill="#64748b"/>
    </marker>
    <marker id="arrowGreen" markerWidth="10" markerHeight="7" refX="10" refY="3.5" orient="auto">
      <polygon points="0 0, 10 3.5, 0 7" fill="#16a34a"/>
    </marker>
    <marker id="arrowRed" markerWidth="10" markerHeight="7" refX="10" refY="3.5" orient="auto">
      <polygon points="0 0, 10 3.5, 0 7" fill="#dc2626"/>
    </marker>
  </defs>

  <!-- Background -->
  <rect width="800" height="520" rx="12" fill="#ffffff"/>

  <!-- Title -->
  <text x="400" y="36" text-anchor="middle" font-size="20" font-weight="700" fill="#0B1D3A">Veros — Clinical AI Validation Layer</text>
  <text x="400" y="56" text-anchor="middle" font-size="12" fill="#64748b">How every AI claim gets verified against the patient's actual chart</text>

  <!-- ===== LEFT COLUMN: AI Systems ===== -->
  <rect x="30" y="75" width="200" height="60" rx="8" fill="#f1f5f9" stroke="#e2e8f0"/>
  <text x="130" y="100" text-anchor="middle" font-size="13" font-weight="600" fill="#475569">Epic AI</text>
  <text x="130" y="118" text-anchor="middle" font-size="10" fill="#94a3b8">"Patient has diabetes"</text>
  
  <rect x="30" y="145" width="200" height="60" rx="8" fill="#f1f5f9" stroke="#e2e8f0"/>
  <text x="130" y="170" text-anchor="middle" font-size="13" font-weight="600" fill="#475569">Oracle AI</text>
  <text x="130" y="188" text-anchor="middle" font-size="10" fill="#94a3b8">"Patient needs a statin"</text>
  
  <rect x="30" y="215" width="200" height="60" rx="8" fill="#f1f5f9" stroke="#e2e8f0"/>
  <text x="130" y="240" text-anchor="middle" font-size="13" font-weight="600" fill="#475569">Any Clinical AI</text>
  <text x="130" y="258" text-anchor="middle" font-size="10" fill="#94a3b8">Claims about a patient</text>

  <!-- Arrows from AI to Veros -->
  <line x1="230" y1="105" x2="290" y2="195" stroke="#64748b" stroke-width="1.5" marker-end="url(#arrow)"/>
  <line x1="230" y1="175" x2="290" y2="195" stroke="#64748b" stroke-width="1.5" marker-end="url(#arrow)"/>
  <line x1="230" y1="245" x2="290" y2="195" stroke="#64748b" stroke-width="1.5" marker-end="url(#arrow)"/>

  <!-- ===== CENTER: Veros Validation Layer ===== -->
  <rect x="300" y="120" width="200" height="150" rx="12" fill="#0B1D3A" stroke="#0B1D3A"/>
  <text x="400" y="155" text-anchor="middle" font-size="15" font-weight="700" fill="#ffffff">Veros</text>
  <text x="400" y="173" text-anchor="middle" font-size="10" fill="#94a3b8">Validation Layer</text>
  <line x1="330" y1="188" x2="470" y2="188" stroke="#334155" stroke-width="1"/>
  <text x="400" y="206" text-anchor="middle" font-size="11" fill="#e2e8f0">1. Decomposes claims</text>
  <text x="400" y="222" text-anchor="middle" font-size="11" fill="#e2e8f0">2. Searches FHIR chart</text>
  <text x="400" y="238" text-anchor="middle" font-size="11" fill="#e2e8f0">3. Returns verdict + source</text>
  <text x="400" y="258" text-anchor="middle" font-size="9" fill="#64748b">Every claim logged · Audit chain · RBAC</text>

  <!-- Arrow FROM Veros TO FHIR ===== -->
  <line x1="500" y1="150" x2="560" y2="80" stroke="#64748b" stroke-width="1.5" marker-end="url(#arrow)"/>
  <text x="530" y="110" text-anchor="middle" font-size="9" fill="#64748b">reads</text>

  <line x1="500" y1="200" x2="560" y2="200" stroke="#64748b" stroke-width="1.5" marker-end="url(#arrow)"/>
  <text x="530" y="220" text-anchor="middle" font-size="9" fill="#64748b">reads</text>

  <line x1="500" y1="240" x2="560" y2="320" stroke="#64748b" stroke-width="1.5" marker-end="url(#arrow)"/>
  <text x="527" y="290" text-anchor="middle" font-size="9" fill="#64748b">reads</text>

  <!-- ===== RIGHT: FHIR EHR ===== -->
  <rect x="570" y="70" width="200" height="280" rx="8" fill="#f8fafc" stroke="#0D9488" stroke-width="2"/>
  <text x="670" y="95" text-anchor="middle" font-size="13" font-weight="700" fill="#0B1D3A">FHIR Medical Record</text>
  <line x1="590" y1="108" x2="750" y2="108" stroke="#e2e8f0" stroke-width="1"/>
  
  <text x="590" y="130" font-size="10" fill="#64748b">Allergies</text>
  <text x="750" y="130" text-anchor="end" font-size="10" fill="#475569">Penicillin ✓</text>
  
  <text x="590" y="150" font-size="10" fill="#64748b">Conditions</text>
  <text x="750" y="150" text-anchor="end" font-size="10" fill="#475569">T2DM, DR, HTN</text>
  
  <text x="590" y="170" font-size="10" fill="#64748b">Medications</text>
  <text x="750" y="170" text-anchor="end" font-size="10" fill="#475569">Metformin, Lisinopril</text>
  
  <text x="590" y="190" font-size="10" fill="#64748b">Labs</text>
  <text x="750" y="190" text-anchor="end" font-size="10" fill="#475569">HbA1c 8.2%</text>
  
  <text x="590" y="210" font-size="10" fill="#64748b">Clinical Notes</text>
  <text x="750" y="210" text-anchor="end" font-size="10" fill="#475569">9 notes</text>
  
  <line x1="590" y1="222" x2="750" y2="222" stroke="#e2e8f0" stroke-width="1"/>
  <text x="670" y="242" text-anchor="middle" font-size="9" fill="#0D9488">Source of truth</text>
  <text x="670" y="260" text-anchor="middle" font-size="9" fill="#0D9488">Single patient record</text>
  <text x="670" y="278" text-anchor="middle" font-size="9" fill="#0D9488">FHIR R4 · SMART on FHIR</text>

  <!-- ===== BOTTOM: Results ===== -->
  <rect x="300" y="310" width="470" height="45" rx="8" fill="#f0fdf4" stroke="#16a34a"/>
  <text x="320" y="335" font-size="11" font-weight="600" fill="#16a34a">VERIFIED</text>
  <text x="395" y="335" font-size="11" fill="#475569">"Patient has diabetes" → Confirmed. HbA1c 8.2%, T2DM dx 2013 [Condition/cond-001]</text>

  <rect x="300" y="365" width="470" height="45" rx="8" fill="#fef2f2" stroke="#dc2626"/>
  <text x="320" y="390" font-size="11" font-weight="600" fill="#dc2626">CONTRADICTED</text>
  <text x="433" y="390" font-size="11" fill="#475569">"Patient is allergic to penicillin" → Chart says NKDA [AllergyIntolerance/allergy-003]</text>

  <rect x="300" y="420" width="470" height="45" rx="8" fill="#fffbeb" stroke="#d97706"/>
  <text x="320" y="445" font-size="11" font-weight="600" fill="#d97706">UNVERIFIABLE</text>
  <text x="433" y="445" font-size="11" fill="#475569">"Patient is allergic to cephalexin" → No data found. Refusing to guess.</text>

  <!-- Bottom annotation -->
  <text x="400" y="500" text-anchor="middle" font-size="11" fill="#94a3b8">Works with any EHR · FHIR-native · Open source core · veros.dev</text>
</svg>
